<?xml version="1.0" encoding="UTF-8" standalone="no"?>
<!-- Created with Inkscape (http://www.inkscape.org/) -->

<svg
   xmlns:dc="http://purl.org/dc/elements/1.1/"
   xmlns:cc="http://creativecommons.org/ns#"
   xmlns:rdf="http://www.w3.org/1999/02/22-rdf-syntax-ns#"
   xmlns:svg="http://www.w3.org/2000/svg"
   xmlns="http://www.w3.org/2000/svg"
   xmlns:sodipodi="http://sodipodi.sourceforge.net/DTD/sodipodi-0.dtd"
   xmlns:inkscape="http://www.inkscape.org/namespaces/inkscape"
   width="790"
   height="515.65625"
   id="svg2"
   version="1.1"
   inkscape:version="0.48.4 r9939"
   sodipodi:docname="diagram.svg"
   inkscape:export-filename="/home/luc/Documents/Salt/diagram.png"
   inkscape:export-xdpi="69.81395"
   inkscape:export-ydpi="69.81395">
  <defs
     id="defs4">
    <marker
       inkscape:stockid="Arrow1Lstart"
       orient="auto"
       refY="0"
       refX="0"
       id="Arrow1Lstart"
       style="overflow:visible">
      <path
         id="path5175"
         d="M 0,0 5,-5 -12.5,0 5,5 0,0 z"
         style="fill-rule:evenodd;stroke:#000000;stroke-width:1pt"
         transform="matrix(0.8,0,0,0.8,10,0)"
         inkscape:connector-curvature="0" />
    </marker>
    <marker
       inkscape:stockid="Arrow1Lend"
       orient="auto"
       refY="0"
       refX="0"
       id="Arrow1Lend"
       style="overflow:visible">
      <path
         id="path5178"
         d="M 0,0 5,-5 -12.5,0 5,5 0,0 z"
         style="fill-rule:evenodd;stroke:#000000;stroke-width:1pt"
         transform="matrix(-0.8,0,0,-0.8,-10,0)"
         inkscape:connector-curvature="0" />
    </marker>
    <marker
       inkscape:stockid="Arrow2Lstart"
       orient="auto"
       refY="0"
       refX="0"
       id="Arrow2Lstart"
       style="overflow:visible">
      <path
         id="path5193"
         style="fill-rule:evenodd;stroke-width:0.625;stroke-linejoin:round"
         d="M 8.7185878,4.0337352 -2.2072895,0.01601326 8.7185884,-4.0017078 c -1.7454984,2.3720609 -1.7354408,5.6174519 -6e-7,8.035443 z"
         transform="matrix(1.1,0,0,1.1,1.1,0)"
         inkscape:connector-curvature="0" />
    </marker>
    <marker
       inkscape:stockid="Arrow2Lend"
       orient="auto"
       refY="0"
       refX="0"
       id="Arrow2Lend"
       style="overflow:visible">
      <path
         id="path5196"
         style="fill-rule:evenodd;stroke-width:0.625;stroke-linejoin:round"
         d="M 8.7185878,4.0337352 -2.2072895,0.01601326 8.7185884,-4.0017078 c -1.7454984,2.3720609 -1.7354408,5.6174519 -6e-7,8.035443 z"
         transform="matrix(-1.1,0,0,-1.1,-1.1,0)"
         inkscape:connector-curvature="0" />
    </marker>
  </defs>
  <sodipodi:namedview
     id="base"
     pagecolor="#ffffff"
     bordercolor="#666666"
     borderopacity="1.0"
     inkscape:pageopacity="0.0"
     inkscape:pageshadow="2"
     inkscape:zoom="0.98994949"
     inkscape:cx="178.83861"
     inkscape:cy="311.06977"
     inkscape:document-units="px"
     inkscape:current-layer="layer1"
     showgrid="false"
     inkscape:window-width="1680"
     inkscape:window-height="1034"
     inkscape:window-x="0"
     inkscape:window-y="16"
     inkscape:window-maximized="0"
     fit-margin-top="0"
     fit-margin-left="0"
     fit-margin-right="0"
     fit-margin-bottom="0" />
  <metadata
     id="metadata7">
    <rdf:RDF>
      <cc:Work
         rdf:about="">
        <dc:format>image/svg+xml</dc:format>
        <dc:type
           rdf:resource="http://purl.org/dc/dcmitype/StillImage" />
        <dc:title></dc:title>
      </cc:Work>
    </rdf:RDF>
  </metadata>
  <g
     inkscape:label="Calque 1"
     inkscape:groupmode="layer"
     id="layer1"
     transform="translate(-82.34375,-435.5802)">
    <path
       style="fill:#627991;fill-opacity:1;fill-rule:evenodd;stroke:#000000;stroke-width:1px;stroke-linecap:butt;stroke-linejoin:miter;stroke-opacity:0"
       d="m 119.1875,541.4375 c -20.146481,0 -36.34375,16.22852 -36.34375,36.375 l 0,28.28125 c 0,20.14648 16.197269,36.375 36.34375,36.375 l 149.5,0 c 20.14648,0 36.375,-16.22852 36.375,-36.375 l 0,-28.28125 c 0,-20.14648 -16.22852,-36.375 -36.375,-36.375 l -149.5,0 z m 41.09375,37.28125 4.9375,0 0,3.65625 -4.9375,0 0,-3.65625 z m 43.15625,0 4.9375,0 0,3.65625 -4.9375,0 0,-3.65625 z M 138.5,585.4375 c 1.03124,2e-5 1.80858,0.28127 2.3125,0.84375 0.51561,0.56252 0.87108,1.45314 1.09375,2.625 l 0.0312,0 c 0.46874,-1.24217 1.04296,-2.12889 1.6875,-2.65625 0.65624,-0.52732 1.47264,-0.81248 2.46875,-0.8125 1.38279,2e-5 2.37107,0.52346 2.96875,1.53125 0.59764,1.00783 0.90623,2.7383 0.90625,5.1875 l 0,12.65625 -4.03125,0 0,-11.5625 c -2e-5,-1.74608 -0.0899,-2.9453 -0.3125,-3.625 -0.21095,-0.67967 -0.60158,-1.03123 -1.1875,-1.03125 -0.59767,2e-5 -1.08595,0.4883 -1.4375,1.4375 -0.33986,0.93751 -0.50001,2.33204 -0.5,4.21875 l 0,10.5625 -4.03125,0 0,-11.5625 c -1e-5,-1.74608 -0.0899,-2.9453 -0.3125,-3.625 -0.21095,-0.67967 -0.63282,-1.03123 -1.21875,-1.03125 -0.59766,2e-5 -1.05469,0.5547 -1.40625,1.65625 -0.33985,1.10158 -0.50001,2.55079 -0.5,4.34375 l 0,10.21875 -4.03125,0 0,-14.9375 c 0,-2.21483 -0.0547,-3.57029 -0.125,-4.0625 l 3.6875,0 0.0937,2.21875 0,0.84375 0.0312,0 c 0.39843,-1.1953 0.92187,-2.05467 1.53125,-2.59375 0.60937,-0.55076 1.36718,-0.84373 2.28125,-0.84375 z m 47.84375,0 c 3.93748,2e-5 5.90623,2.43752 5.90625,7.3125 l 0,12.0625 -4.90625,0 0,-10.875 c -1e-5,-1.65233 -0.23048,-2.85155 -0.6875,-3.625 -0.44533,-0.77342 -1.2422,-1.18748 -2.34375,-1.1875 -1.21876,2e-5 -2.19923,0.5508 -2.9375,1.59375 -0.72657,1.03126 -1.06251,2.32423 -1.0625,3.90625 l 0,10.1875 -4.9375,0 0,-14.75 c 0,-1.01952 -0.0274,-1.85545 -0.0625,-2.5 -0.0234,-0.65623 -0.0586,-1.23436 -0.0937,-1.75 l 4.71875,0 c 0.0351,0.22268 0.0664,0.80861 0.125,1.78125 0.0586,0.96095 0.0937,1.63673 0.0937,2 l 0.0625,0 c 0.66796,-1.45311 1.52343,-2.53123 2.53125,-3.1875 1.0078,-0.65623 2.19921,-0.96873 3.59375,-0.96875 z m 40.5,0 c 6.10545,2e-5 9.15623,3.28127 9.15625,9.84375 -2e-5,3.15235 -0.78127,5.58985 -2.375,7.3125 -1.59377,1.71094 -3.88673,2.5625 -6.875,2.5625 -2.88282,0 -5.12501,-0.85156 -6.71875,-2.5625 -1.59375,-1.72265 -2.40625,-4.16015 -2.40625,-7.3125 0,-3.14061 0.79297,-5.5703 2.375,-7.28125 1.58203,-1.71092 3.86718,-2.56248 6.84375,-2.5625 z m 24.25,0 c 3.93748,2e-5 5.90623,2.43752 5.90625,7.3125 l 0,12.0625 -4.90625,0 0,-10.875 c -1e-5,-1.65233 -0.23048,-2.85155 -0.6875,-3.625 -0.44533,-0.77342 -1.21095,-1.18748 -2.3125,-1.1875 -1.21876,2e-5 -2.19923,0.5508 -2.9375,1.59375 -0.72657,1.03126 -1.09376,2.32423 -1.09375,3.90625 l 0,10.1875 -4.9375,0 0,-14.75 c 0,-1.01952 -0.0274,-1.85545 -0.0625,-2.5 -0.0234,-0.65623 -0.0586,-1.23436 -0.0937,-1.75 l 4.71875,0 c 0.0351,0.22268 0.0976,0.80861 0.15625,1.78125 0.0586,0.96095 0.0625,1.63673 0.0625,2 l 0.0937,0 c 0.66796,-1.45311 1.49218,-2.53123 2.5,-3.1875 1.0078,-0.65623 2.19921,-0.96873 3.59375,-0.96875 z m -95.90625,0.375 10.03125,0 0,15.65625 6.21875,0 0,3.34375 -18.09375,0 0,-3.34375 6.9375,0 0,-12.34375 -5.09375,0 0,-3.3125 z m 43.15625,0 10.03125,0 0,15.65625 6.21875,0 0,3.34375 -18.09375,0 0,-3.34375 6.9375,0 0,-12.34375 -5.09375,0 0,-3.3125 z m 28.5625,3.03125 c -1.45313,2e-5 -2.48048,0.50002 -3.125,1.53125 -0.63282,1.03126 -0.96876,2.66798 -0.96875,4.90625 -1e-5,2.26173 0.32421,3.92579 0.96875,4.96875 0.65624,1.03125 1.6289,1.53125 2.90625,1.53125 1.45311,0 2.49999,-0.48047 3.15625,-1.5 0.65624,-1.03124 0.99999,-2.71484 1,-5 -1e-5,-2.24999 -0.30861,-3.88671 -0.90625,-4.90625 -0.59767,-1.03123 -1.61329,-1.53123 -3.03125,-1.53125 z"
       transform="translate(0,308.2677)"
       id="rect2985"
       inkscape:connector-curvature="0" />
    <path
       style="fill:#627991;fill-opacity:1;fill-rule:evenodd;stroke:#000000;stroke-width:1px;stroke-linecap:butt;stroke-linejoin:miter;stroke-opacity:0"
       d="m 402.59375,541.4375 c -20.14648,0 -36.375,16.22852 -36.375,36.375 l 0,28.28125 c 0,20.14648 16.22852,36.375 36.375,36.375 l 149.5,0 c 20.14648,0 36.34375,-16.22852 36.34375,-36.375 l 0,-28.28125 c 0,-20.14648 -16.19727,-36.375 -36.34375,-36.375 l -149.5,0 z m 41.0625,37.28125 4.9375,0 0,3.65625 -4.9375,0 0,-3.65625 z m 43.1875,0 4.9375,0 0,3.65625 -4.9375,0 0,-3.65625 z M 421.875,585.4375 c 1.03124,2e-5 1.80858,0.28127 2.3125,0.84375 0.51561,0.56252 0.87108,1.45314 1.09375,2.625 l 0.0312,0 c 0.46874,-1.24217 1.04296,-2.12889 1.6875,-2.65625 0.65624,-0.52732 1.47264,-0.81248 2.46875,-0.8125 1.38279,2e-5 2.37107,0.52346 2.96875,1.53125 0.59764,1.00783 0.90623,2.7383 0.90625,5.1875 l 0,12.65625 -4,0 0,-11.5625 c -2e-5,-1.74608 -0.12111,-2.9453 -0.34375,-3.625 -0.21095,-0.67967 -0.60158,-1.03123 -1.1875,-1.03125 -0.59767,2e-5 -1.08595,0.4883 -1.4375,1.4375 -0.33986,0.93751 -0.50001,2.33204 -0.5,4.21875 l 0,10.5625 -4,0 0,-11.5625 c -1e-5,-1.74608 -0.1211,-2.9453 -0.34375,-3.625 -0.21095,-0.67967 -0.60157,-1.03123 -1.1875,-1.03125 -0.59766,2e-5 -1.08594,0.5547 -1.4375,1.65625 -0.33985,1.10158 -0.50001,2.55079 -0.5,4.34375 l 0,10.21875 -4.03125,0 0,-14.9375 c 0,-2.21483 -0.0234,-3.57029 -0.0937,-4.0625 l 3.65625,0 0.125,2.21875 0,0.84375 0.0312,0 c 0.39843,-1.1953 0.89062,-2.05467 1.5,-2.59375 0.60937,-0.55076 1.36718,-0.84373 2.28125,-0.84375 z m 47.84375,0 c 3.93748,2e-5 5.90623,2.43752 5.90625,7.3125 l 0,12.0625 -4.90625,0 0,-10.875 c -10e-6,-1.65233 -0.23048,-2.85155 -0.6875,-3.625 -0.44533,-0.77342 -1.21095,-1.18748 -2.3125,-1.1875 -1.21876,2e-5 -2.19923,0.5508 -2.9375,1.59375 -0.72657,1.03126 -1.09376,2.32423 -1.09375,3.90625 l 0,10.1875 -4.9375,0 0,-14.75 c 0,-1.01952 -0.0274,-1.85545 -0.0625,-2.5 -0.0234,-0.65623 -0.0586,-1.23436 -0.0937,-1.75 l 4.71875,0 c 0.0351,0.22268 0.0976,0.80861 0.15625,1.78125 0.0586,0.96095 0.0625,1.63673 0.0625,2 l 0.0937,0 c 0.66796,-1.45311 1.49218,-2.53123 2.5,-3.1875 1.0078,-0.65623 2.19921,-0.96873 3.59375,-0.96875 z m 40.5,0 c 6.10545,2e-5 9.15623,3.28127 9.15625,9.84375 -2e-5,3.15235 -0.78127,5.58985 -2.375,7.3125 -1.59377,1.71094 -3.88673,2.5625 -6.875,2.5625 -2.88282,0 -5.12501,-0.85156 -6.71875,-2.5625 -1.59375,-1.72265 -2.375,-4.16015 -2.375,-7.3125 0,-3.14061 0.79297,-5.5703 2.375,-7.28125 1.58203,-1.71092 3.83593,-2.56248 6.8125,-2.5625 z m 24.28125,0 c 3.93748,2e-5 5.90623,2.43752 5.90625,7.3125 l 0,12.0625 -4.9375,0 0,-10.875 c -10e-6,-1.65233 -0.23048,-2.85155 -0.6875,-3.625 -0.44533,-0.77342 -1.21095,-1.18748 -2.3125,-1.1875 -1.21876,2e-5 -2.19923,0.5508 -2.9375,1.59375 -0.72657,1.03126 -1.09376,2.32423 -1.09375,3.90625 l 0,10.1875 -4.9375,0 0,-14.75 c 0,-1.01952 -0.0273,-1.85545 -0.0625,-2.5 -0.0234,-0.65623 -0.0273,-1.23436 -0.0625,-1.75 l 4.6875,0 c 0.0352,0.22268 0.0977,0.80861 0.15625,1.78125 0.0586,0.96095 0.0937,1.63673 0.0937,2 l 0.0625,0 c 0.66796,-1.45311 1.49218,-2.53123 2.5,-3.1875 1.0078,-0.65623 2.23046,-0.96873 3.625,-0.96875 z m -95.9375,0.375 10.03125,0 0,15.65625 6.21875,0 0,3.34375 -18.09375,0 0,-3.34375 6.9375,0 0,-12.34375 -5.09375,0 0,-3.3125 z m 43.1875,0 10.03125,0 0,15.65625 6.1875,0 0,3.34375 -18.09375,0 0,-3.34375 6.96875,0 0,-12.34375 -5.09375,0 0,-3.3125 z m 28.5625,3.03125 c -1.45313,2e-5 -2.51173,0.50002 -3.15625,1.53125 -0.63282,1.03126 -0.93751,2.66798 -0.9375,4.90625 -10e-6,2.26173 0.29296,3.92579 0.9375,4.96875 0.65624,1.03125 1.6289,1.53125 2.90625,1.53125 1.45311,0 2.53124,-0.48047 3.1875,-1.5 0.65624,-1.03124 0.96874,-2.71484 0.96875,-5 -10e-6,-2.24999 -0.30861,-3.88671 -0.90625,-4.90625 -0.59767,-1.03123 -1.58204,-1.53123 -3,-1.53125 z"
       transform="translate(0,308.2677)"
       id="rect2985-6"
       inkscape:connector-curvature="0" />
    <path
       style="fill:#627991;fill-opacity:1;fill-rule:evenodd;stroke:#000000;stroke-width:1px;stroke-linecap:butt;stroke-linejoin:miter;stroke-opacity:0"
       d="m 685.96875,541.4375 c -20.14648,0 -36.375,16.22852 -36.375,36.375 l 0,28.28125 c 0,20.14648 16.22852,36.375 36.375,36.375 l 149.5,0 c 20.14648,0 36.375,-16.22852 36.375,-36.375 l 0,-28.28125 c 0,-20.14648 -16.22852,-36.375 -36.375,-36.375 l -149.5,0 z m 41.0625,37.28125 4.9375,0 0,3.65625 -4.9375,0 0,-3.65625 z m 43.1875,0 4.9375,0 0,3.65625 -4.9375,0 0,-3.65625 z M 705.25,585.4375 c 1.03124,2e-5 1.80858,0.28127 2.3125,0.84375 0.51561,0.56252 0.90233,1.45314 1.125,2.625 l 0.0312,0 c 0.46874,-1.24217 1.01171,-2.12889 1.65625,-2.65625 0.65624,-0.52732 1.47264,-0.81248 2.46875,-0.8125 1.38279,2e-5 2.40232,0.52346 3,1.53125 0.59764,1.00783 0.87498,2.7383 0.875,5.1875 l 0,12.65625 -4,0 0,-11.5625 c -2e-5,-1.74608 -0.12111,-2.9453 -0.34375,-3.625 -0.21095,-0.67967 -0.60158,-1.03123 -1.1875,-1.03125 -0.59767,2e-5 -1.08595,0.4883 -1.4375,1.4375 -0.33986,0.93751 -0.50001,2.33204 -0.5,4.21875 l 0,10.5625 -4,0 0,-11.5625 c -10e-6,-1.74608 -0.1211,-2.9453 -0.34375,-3.625 -0.21095,-0.67967 -0.60157,-1.03123 -1.1875,-1.03125 -0.59766,2e-5 -1.08594,0.5547 -1.4375,1.65625 -0.33985,1.10158 -0.50001,2.55079 -0.5,4.34375 l 0,10.21875 -4.03125,0 0,-14.9375 c 0,-2.21483 -0.0234,-3.57029 -0.0937,-4.0625 l 3.65625,0 0.125,2.21875 0,0.84375 0.0312,0 c 0.39843,-1.1953 0.89062,-2.05467 1.5,-2.59375 0.60937,-0.55076 1.36718,-0.84373 2.28125,-0.84375 z m 47.875,0 c 3.93748,2e-5 5.90623,2.43752 5.90625,7.3125 l 0,12.0625 -4.9375,0 0,-10.875 c -10e-6,-1.65233 -0.23048,-2.85155 -0.6875,-3.625 -0.44533,-0.77342 -1.21095,-1.18748 -2.3125,-1.1875 -1.21876,2e-5 -2.19923,0.5508 -2.9375,1.59375 -0.72657,1.03126 -1.09376,2.32423 -1.09375,3.90625 l 0,10.1875 -4.9375,0 0,-14.75 c 0,-1.01952 -0.0273,-1.85545 -0.0625,-2.5 -0.0234,-0.65623 -0.0273,-1.23436 -0.0625,-1.75 l 4.6875,0 c 0.0352,0.22268 0.0977,0.80861 0.15625,1.78125 0.0586,0.96095 0.0937,1.63673 0.0937,2 l 0.0625,0 c 0.66796,-1.45311 1.49218,-2.53123 2.5,-3.1875 1.0078,-0.65623 2.23046,-0.96873 3.625,-0.96875 z m 40.5,0 c 6.10545,2e-5 9.15623,3.28127 9.15625,9.84375 -2e-5,3.15235 -0.81252,5.58985 -2.40625,7.3125 -1.59377,1.71094 -3.88673,2.5625 -6.875,2.5625 -2.88282,0 -5.12501,-0.85156 -6.71875,-2.5625 -1.59375,-1.72265 -2.375,-4.16015 -2.375,-7.3125 0,-3.14061 0.79297,-5.5703 2.375,-7.28125 1.58203,-1.71092 3.86718,-2.56248 6.84375,-2.5625 z m 24.25,0 c 3.93748,2e-5 5.90623,2.43752 5.90625,7.3125 l 0,12.0625 -4.9375,0 0,-10.875 c -10e-6,-1.65233 -0.23048,-2.85155 -0.6875,-3.625 -0.44533,-0.77342 -1.21095,-1.18748 -2.3125,-1.1875 -1.21876,2e-5 -2.19923,0.5508 -2.9375,1.59375 -0.72657,1.03126 -1.09376,2.32423 -1.09375,3.90625 l 0,10.1875 -4.9375,0 0,-14.75 c 0,-1.01952 0.004,-1.85545 -0.0312,-2.5 -0.0234,-0.65623 -0.0586,-1.23436 -0.0937,-1.75 l 4.71875,0 c 0.0352,0.22268 0.0664,0.80861 0.125,1.78125 0.0586,0.96095 0.0937,1.63673 0.0937,2 l 0.0625,0 c 0.66796,-1.45311 1.52343,-2.53123 2.53125,-3.1875 1.0078,-0.65623 2.19921,-0.96873 3.59375,-0.96875 z m -95.9375,0.375 10.03125,0 0,15.65625 6.21875,0 0,3.34375 -18.09375,0 0,-3.34375 6.9375,0 0,-12.34375 -5.09375,0 0,-3.3125 z m 43.1875,0 10.03125,0 0,15.65625 6.21875,0 0,3.34375 -18.09375,0 0,-3.34375 6.9375,0 0,-12.34375 -5.09375,0 0,-3.3125 z m 28.5625,3.03125 c -1.45313,2e-5 -2.51173,0.50002 -3.15625,1.53125 -0.63282,1.03126 -0.93751,2.66798 -0.9375,4.90625 -10e-6,2.26173 0.32421,3.92579 0.96875,4.96875 0.65624,1.03125 1.6289,1.53125 2.90625,1.53125 1.45311,0 2.49999,-0.48047 3.15625,-1.5 0.65624,-1.03124 0.96874,-2.71484 0.96875,-5 -10e-6,-2.24999 -0.27736,-3.88671 -0.875,-4.90625 -0.59767,-1.03123 -1.61329,-1.53123 -3.03125,-1.53125 z"
       transform="translate(0,308.2677)"
       id="rect2985-6-4-6"
       inkscape:connector-curvature="0" />
    <text
       xml:space="preserve"
       style="font-size:18px;font-style:normal;font-variant:normal;font-weight:bold;font-stretch:normal;text-align:start;line-height:125%;letter-spacing:0px;word-spacing:0px;writing-mode:lr-tb;text-anchor:start;fill:#000000;fill-opacity:1;stroke:none;font-family:TradeGothic LT Bold;-inkscape-font-specification:TradeGothic LT Bold"
       x="253.54828"
       y="699.3866"
       id="text6553"
       sodipodi:linespacing="125%"><tspan
         sodipodi:role="line"
         id="tspan6555"
         x="253.54828"
         y="699.3866"
         style="font-size:36px;font-style:normal;font-variant:normal;font-weight:bold;font-stretch:normal;fill:#d43c40;fill-opacity:1;font-family:Liberation Mono;-inkscape-font-specification:Liberation Mono Bold">PUB</tspan></text>
    <text
       xml:space="preserve"
       style="font-size:18px;font-style:normal;font-variant:normal;font-weight:bold;font-stretch:normal;text-align:start;line-height:125%;letter-spacing:0px;word-spacing:0px;writing-mode:lr-tb;text-anchor:start;fill:#000000;fill-opacity:1;stroke:none;font-family:TradeGothic LT Bold;-inkscape-font-specification:TradeGothic LT Bold"
       x="405.20114"
       y="699.57117"
       id="text6553-0"
       sodipodi:linespacing="125%"><tspan
         sodipodi:role="line"
         id="tspan6555-0"
         x="405.20114"
         y="699.57117"
         style="font-size:36px;font-style:normal;font-variant:normal;font-weight:bold;font-stretch:normal;fill:#d43c40;fill-opacity:1;font-family:Liberation Mono;-inkscape-font-specification:Liberation Mono Bold">SUB</tspan></text>
    <text
       xml:space="preserve"
       style="font-size:18px;font-style:normal;font-variant:normal;font-weight:bold;font-stretch:normal;text-align:start;line-height:125%;letter-spacing:0px;word-spacing:0px;writing-mode:lr-tb;text-anchor:start;fill:#000000;fill-opacity:1;stroke:none;font-family:TradeGothic LT Bold;-inkscape-font-specification:TradeGothic LT Bold"
       x="631.38739"
       y="699.56238"
       id="text6553-0-3"
       sodipodi:linespacing="125%"><tspan
         sodipodi:role="line"
         id="tspan6555-0-5"
         x="631.38739"
         y="699.56238"
         style="font-size:36px;font-style:normal;font-variant:normal;font-weight:bold;font-stretch:normal;fill:#d43c40;fill-opacity:1;font-family:Liberation Mono;-inkscape-font-specification:Liberation Mono Bold">REP</tspan></text>
    <path
       style="fill:#627991;fill-opacity:1;fill-rule:evenodd;stroke:#000000;stroke-width:1px;stroke-linecap:butt;stroke-linejoin:miter;stroke-opacity:0"
       d="m 402.59375,127.8125 c -20.14648,0 -36.375,16.22852 -36.375,36.375 l 0,28.28125 c 0,20.14648 16.22852,36.375 36.375,36.375 l 149.5,0 c 20.14648,0 36.34375,-16.22852 36.34375,-36.375 l 0,-28.28125 c 0,-20.14648 -16.19727,-36.375 -36.34375,-36.375 l -149.5,0 z m 82.96875,38.34375 3.09375,0 0,4.96875 6.78125,0 0,3.34375 -6.78125,0 0,9.3125 c -10e-6,1.03126 0.0937,1.73047 0.28125,2.09375 0.19921,0.35157 0.53514,0.63282 0.96875,0.84375 0.43358,0.19922 1.02733,0.28125 1.8125,0.28125 1.45311,0 2.96483,-0.15234 4.5,-0.46875 l 0,3.28125 c -1.66408,0.26953 -2.83986,0.42187 -3.53125,0.46875 -0.69142,0.0586 -1.43751,0.0937 -2.1875,0.0937 -1.48829,0 -2.71095,-0.19531 -3.71875,-0.59375 -0.9961,-0.41016 -1.76563,-1.05078 -2.28125,-1.90625 -0.50391,-0.86718 -0.75001,-2.09765 -0.75,-3.65625 l 0.0312,-9.75 -2.9375,0 0,-3.34375 3.1875,0 1.53125,-4.96875 z M 467.375,170.75 c 2.26171,2e-5 4.06639,0.43361 5.4375,1.3125 1.38279,0.87892 2.25389,2.14845 2.59375,3.8125 l -4.375,0.46875 c -0.14064,-0.77342 -0.51173,-1.34373 -1.0625,-1.71875 -0.55079,-0.3867 -1.39845,-0.59373 -2.59375,-0.59375 -1.17188,2e-5 -2.07032,0.16408 -2.65625,0.46875 -0.58595,0.29298 -0.87501,0.79689 -0.875,1.5 -10e-6,0.55079 0.24218,0.98439 0.6875,1.3125 0.45702,0.31642 1.21483,0.57032 2.28125,0.78125 1.48827,0.3047 2.78905,0.64064 3.9375,0.96875 1.16014,0.31642 2.08983,0.6797 2.78125,1.125 0.70311,0.44532 1.27733,1.01563 1.6875,1.71875 0.42186,0.69141 0.62498,1.59766 0.625,2.6875 -2e-5,1.83985 -0.76955,3.28906 -2.28125,4.34375 -1.50002,1.04297 -3.55861,1.5625 -6.21875,1.5625 -2.61329,0 -4.63673,-0.42969 -6.03125,-1.25 -1.38282,-0.83203 -2.29297,-2.09765 -2.75,-3.84375 l 4.34375,-0.65625 c 0.24609,0.90235 0.65234,1.53125 1.25,1.90625 0.60937,0.375 1.68749,0.5625 3.1875,0.5625 1.3828,0 2.36717,-0.17968 3,-0.53125 0.6328,-0.35156 0.96874,-0.90625 0.96875,-1.65625 -10e-6,-0.60937 -0.26564,-1.08593 -0.78125,-1.4375 -0.50392,-0.36327 -1.37501,-0.66015 -2.59375,-0.90625 -2.78907,-0.55077 -4.65235,-1.06249 -5.625,-1.53125 -0.97266,-0.48046 -1.73438,-1.09374 -2.25,-1.84375 -0.50391,-0.76171 -0.75,-1.67967 -0.75,-2.78125 0,-1.81639 0.69922,-3.24217 2.09375,-4.25 1.40624,-1.01951 3.40234,-1.53123 5.96875,-1.53125 z m -45.28125,0.0312 c 1.03124,2e-5 1.77733,0.28127 2.28125,0.84375 0.51561,0.56252 0.90233,1.42189 1.125,2.59375 l 0.0312,0 c 0.46874,-1.24217 1.01171,-2.12889 1.65625,-2.65625 0.65624,-0.52732 1.50389,-0.78123 2.5,-0.78125 1.38279,2e-5 2.37107,0.49221 2.96875,1.5 0.59764,1.00783 0.87498,2.7383 0.875,5.1875 l 0,12.65625 -4,0 0,-11.5625 c -2e-5,-1.74608 -0.12111,-2.9453 -0.34375,-3.625 -0.21095,-0.67967 -0.60158,-1.03123 -1.1875,-1.03125 -0.59767,2e-5 -1.0547,0.4883 -1.40625,1.4375 -0.33986,0.93751 -0.53126,2.33204 -0.53125,4.21875 l 0,10.5625 -4,0 0,-11.5625 c -1e-5,-1.74608 -0.1211,-2.9453 -0.34375,-3.625 -0.21095,-0.67967 -0.60157,-1.03123 -1.1875,-1.03125 -0.59766,2e-5 -1.05469,0.5547 -1.40625,1.65625 -0.33985,1.10158 -0.53126,2.55079 -0.53125,4.34375 l 0,10.21875 -4.03125,0 0,-14.9375 c 0,-2.21483 -0.0234,-3.57029 -0.0937,-4.0625 l 3.6875,0 0.0937,2.21875 0,0.84375 0.0312,0 c 0.39843,-1.1953 0.92187,-2.05467 1.53125,-2.59375 0.60937,-0.55076 1.36718,-0.81248 2.28125,-0.8125 z m 23.46875,0 c 2.36717,2e-5 4.18358,0.55861 5.4375,1.71875 1.26561,1.16017 1.90623,2.87501 1.90625,5.125 l 0,6.875 c -2e-5,1.06641 0.10936,1.8086 0.34375,2.21875 0.24608,0.39844 0.65623,0.59375 1.21875,0.59375 0.37498,0 0.74217,-0.0234 1.09375,-0.0937 l 0,2.6875 c -0.29299,0.0703 -0.57815,0.12891 -0.8125,0.1875 -0.23439,0.0586 -0.45314,0.0898 -0.6875,0.125 -0.23439,0.0352 -0.48049,0.0703 -0.75,0.0937 -0.25783,0.0234 -0.58596,0.0312 -0.9375,0.0312 -1.2422,0 -2.15236,-0.29687 -2.75,-0.90625 -0.58595,-0.60937 -0.94533,-1.5039 -1.0625,-2.6875 l -0.0937,0 c -0.73829,1.32422 -1.58204,2.28906 -2.53125,2.875 -0.93751,0.58594 -2.06251,0.875 -3.375,0.875 -1.83985,0 -3.28125,-0.50391 -4.3125,-1.5 -1.03125,-1.00781 -1.53125,-2.43359 -1.53125,-4.25 0,-1.96874 0.59375,-3.44921 1.8125,-4.46875 1.23046,-1.03124 3.06249,-1.55858 5.5,-1.59375 l 3.9375,-0.0937 0,-0.9375 c -10e-6,-1.20702 -0.21486,-2.12889 -0.625,-2.75 -0.41017,-0.62108 -1.08595,-0.93748 -2,-0.9375 -0.85548,2e-5 -1.46485,0.22267 -1.875,0.65625 -0.39845,0.42189 -0.65626,1.09376 -0.75,2.03125 l -5.15625,-0.25 c 0.63281,-3.7617 3.30078,-5.62498 8,-5.625 z m 65.125,0 c 2.77733,2e-5 4.93358,0.89846 6.46875,2.75 1.53514,1.85158 2.28123,4.49611 2.28125,7.90625 l 0,0.15625 -12.90625,0 c -10e-6,1.72266 0.39452,3.08594 1.15625,4.09375 0.77343,1.00782 1.8203,1.5 3.15625,1.5 0.86718,0 1.64452,-0.16797 2.3125,-0.53125 0.66795,-0.375 1.10936,-0.97656 1.34375,-1.75 l 4.65625,0.40625 c -0.64455,1.65235 -1.71877,2.94141 -3.21875,3.84375 -1.50001,0.89063 -3.28126,1.34375 -5.34375,1.34375 -2.95313,0 -5.20704,-0.89062 -6.8125,-2.625 -1.60547,-1.74609 -2.40625,-4.1914 -2.40625,-7.34375 0,-2.10936 0.375,-3.89061 1.125,-5.34375 0.76172,-1.45311 1.82421,-2.53123 3.21875,-3.28125 1.39452,-0.74998 3.05858,-1.12498 4.96875,-1.125 z m 25.875,0 c 1.21873,2e-5 2.42967,0.0821 3.625,0.28125 l 0,4.15625 c -1.31252,-0.22264 -2.54689,-0.31248 -3.71875,-0.3125 -1.82814,2e-5 -3.29689,0.6797 -4.375,2.0625 -1.06642,1.38282 -1.59376,3.20704 -1.59375,5.46875 l 0,7.6875 -4.90625,0 0,-12.3125 c 0,-0.89061 -0.0859,-1.9492 -0.25,-3.15625 -0.15235,-1.20701 -0.39454,-2.37108 -0.6875,-3.53125 l 4.78125,0 c 0.42187,1.52345 0.6953,2.85158 0.8125,4 l 0.0625,0 c 0.58593,-1.59373 1.3789,-2.71873 2.375,-3.375 0.99608,-0.65623 2.28124,-0.96873 3.875,-0.96875 z m -25.96875,3.09375 c -1.20704,2e-5 -2.16017,0.4297 -2.875,1.25 -0.71485,0.80861 -1.07813,1.93361 -1.125,3.375 l 8.0625,0 c -0.082,-1.40624 -0.46095,-2.54295 -1.1875,-3.375 -0.71486,-0.83202 -1.69142,-1.24998 -2.875,-1.25 z m -62.625,7.46875 -2.375,0.0312 c -1.0547,0.0234 -1.80079,0.11329 -2.28125,0.3125 -0.46876,0.18751 -0.84766,0.50391 -1.09375,0.9375 -0.2461,0.42188 -0.37501,1.01173 -0.375,1.75 -10e-6,1.78125 0.71874,2.65625 2.125,2.65625 1.13671,0 2.08202,-0.42187 2.84375,-1.3125 0.76171,-0.90234 1.15624,-2.03515 1.15625,-3.40625 l 0,-0.96875 z"
       transform="translate(0,308.2677)"
       id="rect2985-8"
       inkscape:connector-curvature="0" />
    <path
       style="fill:none;stroke:#000000;stroke-width:1.5;stroke-linecap:butt;stroke-linejoin:miter;stroke-miterlimit:4;stroke-opacity:1;stroke-dasharray:none;marker-start:url(#Arrow1Lstart);marker-end:none"
       d="M 442.71981,228.84375 228.56144,541.4375"
       id="path6706"
       inkscape:connector-type="polyline"
       inkscape:connector-curvature="0"
       inkscape:connection-start="#rect2985-8"
       inkscape:connection-start-point="d4"
       inkscape:connection-end="#rect2985"
       inkscape:connection-end-point="d4"
       transform="translate(0,308.2677)" />
    <path
       style="fill:none;stroke:#000000;stroke-width:1.5;stroke-linecap:butt;stroke-linejoin:miter;stroke-miterlimit:4;stroke-opacity:1;stroke-dasharray:none;marker-end:url(#Arrow1Lend)"
       d="m 477.32812,228.84375 0,312.59375"
       id="path6708"
       inkscape:connector-type="polyline"
       inkscape:connector-curvature="0"
       inkscape:connection-start="#rect2985-8"
       inkscape:connection-start-point="d4"
       inkscape:connection-end="#rect2985-6"
       inkscape:connection-end-point="d4"
       transform="translate(0,308.2677)" />
    <path
       style="fill:none;stroke:#000000;stroke-width:1.5;stroke-linecap:butt;stroke-linejoin:miter;stroke-miterlimit:4;stroke-opacity:1;stroke-dasharray:none;marker-start:url(#Arrow1Lstart)"
       d="M 511.93835,228.84375 726.10852,541.4375"
       id="path6710"
       inkscape:connector-type="polyline"
       inkscape:connector-curvature="0"
       inkscape:connection-start="#rect2985-8"
       inkscape:connection-start-point="d4"
       inkscape:connection-end="#rect2985-6-4-6"
       inkscape:connection-end-point="d4"
       transform="translate(0,308.2677)" />
    <text
       xml:space="preserve"
       style="font-size:56px;font-style:normal;font-variant:normal;font-weight:normal;font-stretch:normal;text-align:start;line-height:125%;letter-spacing:0px;word-spacing:0px;writing-mode:lr-tb;text-anchor:start;fill:#000000;fill-opacity:1;stroke:none;font-family:Liberation Mono;-inkscape-font-specification:Liberation Mono"
       x="31.31473"
       y="44.058769"
       id="text7861"
       sodipodi:linespacing="125%"
       transform="translate(0,308.2677)"><tspan
         sodipodi:role="line"
         id="tspan7863"
         x="31.31473"
         y="44.058769" /></text>
    <text
       xml:space="preserve"
       style="font-size:18px;font-style:normal;font-variant:normal;font-weight:normal;font-stretch:normal;text-align:start;line-height:125%;letter-spacing:0px;word-spacing:0px;writing-mode:lr-tb;text-anchor:start;fill:#000000;fill-opacity:1;stroke:none;font-family:Liberation Mono;-inkscape-font-specification:Liberation Mono"
       x="368.09509"
       y="577.35168"
       id="text3005"
       sodipodi:linespacing="125%"><tspan
         sodipodi:role="line"
         id="tspan3007"
         x="368.09509"
         y="577.35168">4505</tspan></text>
    <text
       xml:space="preserve"
       style="font-size:18px;font-style:normal;font-variant:normal;font-weight:normal;font-stretch:normal;text-align:start;line-height:125%;letter-spacing:0px;word-spacing:0px;writing-mode:lr-tb;text-anchor:start;fill:#000000;fill-opacity:1;stroke:none;font-family:Liberation Mono;-inkscape-font-specification:Liberation Mono"
       x="430.5473"
       y="577.35168"
       id="text3005-5"
       sodipodi:linespacing="125%"><tspan
         sodipodi:role="line"
         id="tspan3007-5"
         x="430.5473"
         y="577.35168">4505</tspan></text>
    <text
       xml:space="preserve"
       style="font-size:18px;font-style:normal;font-variant:normal;font-weight:normal;font-stretch:normal;text-align:start;line-height:125%;letter-spacing:0px;word-spacing:0px;writing-mode:lr-tb;text-anchor:start;fill:#000000;fill-opacity:1;stroke:none;font-family:Liberation Mono;-inkscape-font-specification:Liberation Mono"
       x="539.70465"
       y="577.35168"
       id="text3005-5-4"
       sodipodi:linespacing="125%"><tspan
         sodipodi:role="line"
         id="tspan3007-5-6"
         x="539.70465"
         y="577.35168">4506</tspan></text>
  </g>
</svg>
